<svg width="168" height="48" viewBox="0 0 168 48" fill="none" xmlns="http://www.w3.org/2000/svg">
<g clip-path="url(#clip0_308_3197)">
<path d="M167.309 43.1873C167.308 44.4634 166.801 45.6872 165.899 46.5896C164.997 47.492 163.773 47.999 162.497 47.9992H4.82543C3.54792 48.0004 2.32224 47.4942 1.41796 46.5918C0.513676 45.6894 0.00486111 44.4648 0.00341797 43.1873V4.81809C0.00341797 3.53921 0.511446 2.31271 1.41575 1.40841C2.32005 0.50411 3.54655 -0.00390625 4.82543 -0.00390625H162.49C163.767 -0.00267079 164.991 0.505253 165.895 1.40841C166.798 2.31157 167.306 3.53618 167.307 4.81344V4.81344V43.1834L167.309 43.1873Z" fill="#371B79"/>
<path d="M36.7426 23.7357C36.7583 22.5073 37.0847 21.3029 37.6914 20.2347C38.298 19.1665 39.1652 18.2692 40.2121 17.6265C39.5469 16.6769 38.6694 15.8955 37.6495 15.3443C36.6295 14.793 35.4951 14.4872 34.3362 14.4509C31.863 14.1904 29.466 15.9287 28.2068 15.9287C26.9228 15.9287 24.9846 14.4758 22.8941 14.5178C21.5433 14.5613 20.2268 14.9541 19.073 15.6578C17.9192 16.3616 16.9674 17.3523 16.3105 18.5333C13.4616 23.4603 15.5856 30.7034 18.3139 34.6878C19.6796 36.64 21.274 38.8169 23.3615 38.7399C25.4038 38.6567 26.1614 37.4395 28.6291 37.4395C31.072 37.4395 31.7883 38.7399 33.9178 38.6917C36.1102 38.6567 37.4892 36.7317 38.8067 34.7625C39.7884 33.3734 40.5431 31.8371 41.0427 30.2111C39.7704 29.6723 38.6845 28.7711 37.9204 27.6199C37.1562 26.4687 36.7474 25.1182 36.7449 23.7364L36.7426 23.7357ZM32.7216 11.8292C33.9163 10.3954 34.505 8.55229 34.3627 6.69141C32.5376 6.8847 30.8519 7.75659 29.6394 9.13429C29.0477 9.80797 28.5945 10.5916 28.3058 11.4405C28.017 12.2893 27.8983 13.1868 27.9564 14.0815C28.8696 14.0908 29.773 13.8926 30.5984 13.5019C31.4239 13.1112 32.1498 12.5382 32.7216 11.8261V11.8292Z" fill="#F5F2FC"/>
<path d="M66.3194 38.4024H63.4658L61.9033 33.4917H56.4685L54.9791 38.4024H52.2025L57.5853 21.6809H60.9117L66.3201 38.4024H66.3194ZM61.4305 31.4315L60.0181 27.0668C59.8677 26.6209 59.5867 25.5707 59.175 23.9161H59.1252C58.9583 24.6275 58.6933 25.6777 58.3304 27.0668L56.9413 31.4315H61.4305ZM80.1391 32.2279C80.2365 34.0038 79.6368 35.7476 78.4677 37.088C77.9968 37.6019 77.4217 38.0093 76.7807 38.2832C76.1398 38.5571 75.4478 38.691 74.7509 38.6762C74.0756 38.7317 73.3979 38.6016 72.7911 38.3001C72.1843 37.9985 71.6714 37.5369 71.3078 36.9651V43.2897H68.6246V30.3092C68.6246 29.0218 68.5917 27.7012 68.5258 26.3474H70.8816L71.0356 28.2591H71.0877C71.4935 27.6373 72.0389 27.119 72.6805 26.7454C73.3221 26.3718 74.0421 26.1532 74.7831 26.1071C75.5241 26.061 76.2656 26.1887 76.9486 26.4799C77.6315 26.7712 78.2369 27.218 78.7166 27.7847C79.711 29.0459 80.2167 30.6236 80.1407 32.2279H80.1391ZM77.4092 32.3251C77.4507 31.2987 77.1736 30.2845 76.6159 29.4218C76.3567 29.0451 76.0075 28.739 75.6001 28.5314C75.1927 28.3237 74.7398 28.221 74.2827 28.2326C73.6246 28.2321 72.9876 28.4647 72.4846 28.889C71.9474 29.3275 71.5757 29.936 71.4307 30.6141C71.3567 30.8803 71.3146 31.1545 71.3055 31.4307V33.4412C71.2837 34.2572 71.5719 35.0511 72.112 35.6632C72.3736 35.9596 72.6975 36.1945 73.0606 36.351C73.4236 36.5075 73.8168 36.5818 74.2119 36.5685C74.6708 36.5863 75.1268 36.4889 75.5383 36.2851C75.9499 36.0813 76.3038 35.7776 76.5677 35.4019C77.1692 34.4921 77.4653 33.4145 77.4131 32.3251H77.4092ZM94.0078 32.2279C94.1052 34.0038 93.5055 35.7476 92.3365 37.088C91.8655 37.6019 91.2904 38.0093 90.6494 38.2832C90.0085 38.5571 89.3165 38.691 88.6196 38.6762C87.9441 38.7314 87.2663 38.6013 86.6593 38.2998C86.0523 37.9983 85.5391 37.5368 85.175 36.9651V43.2897H82.4964V30.3092C82.4964 29.0218 82.463 27.7012 82.3961 26.3474H84.7535L84.9028 28.2591H84.9525C85.3585 27.6373 85.9041 27.119 86.5458 26.7453C87.1875 26.3717 87.9076 26.1532 88.6487 26.1071C89.3898 26.061 90.1315 26.1887 90.8145 26.4799C91.4976 26.7712 92.1032 27.218 92.583 27.7847C93.5766 29.0463 94.0822 30.6237 94.007 32.2279H94.0078ZM91.278 32.3251C91.319 31.2985 91.0413 30.2843 90.4831 29.4218C90.224 29.0449 89.8749 28.7388 89.4674 28.5311C89.0599 28.3234 88.6071 28.2208 88.1499 28.2326C87.4914 28.233 86.8542 28.4654 86.3502 28.889C85.8136 29.328 85.442 29.9363 85.2963 30.6141C85.2232 30.8805 85.1812 31.1546 85.1711 31.4307V33.4412C85.1503 34.2567 85.4378 35.0501 85.9761 35.6632C86.2379 35.9593 86.5619 36.1939 86.9249 36.3504C87.2879 36.5069 87.6809 36.5814 88.076 36.5685C88.5349 36.5869 88.9911 36.4897 89.4028 36.2859C89.8144 36.082 90.1682 35.778 90.4318 35.4019C91.0335 34.4922 91.3299 33.4145 91.278 32.3251V32.3251ZM109.516 33.7142C109.537 34.3665 109.414 35.0155 109.157 35.6155C108.9 36.2154 108.515 36.7518 108.028 37.1868C106.747 38.2286 105.121 38.7512 103.473 38.6513C101.96 38.7236 100.458 38.362 99.1433 37.6091L99.7655 35.377C100.936 36.0717 102.275 36.4321 103.636 36.4192C104.477 36.4701 105.309 36.2294 105.992 35.7378C106.265 35.5213 106.484 35.2438 106.631 34.9274C106.777 34.6111 106.848 34.2648 106.837 33.9164C106.842 33.5986 106.783 33.2829 106.663 32.9888C106.543 32.6946 106.364 32.428 106.137 32.2053C105.465 31.6212 104.68 31.1824 103.831 30.9166C100.902 29.8247 99.4373 28.2285 99.4357 26.1281C99.4205 25.4849 99.5523 24.8467 99.8211 24.2622C100.09 23.6777 100.488 23.1622 100.987 22.755C102.151 21.8338 103.611 21.3662 105.094 21.439C106.405 21.3931 107.707 21.6659 108.889 22.2339L108.218 24.4162C107.228 23.8936 106.123 23.6296 105.004 23.6486C104.205 23.6005 103.416 23.8476 102.788 24.3431C102.573 24.5321 102.402 24.7653 102.286 25.0266C102.17 25.288 102.111 25.5714 102.115 25.8574C102.11 26.1711 102.176 26.4819 102.31 26.7659C102.443 27.0498 102.64 27.2994 102.885 27.4953C103.622 28.0511 104.443 28.4861 105.316 28.784C106.518 29.2069 107.605 29.9025 108.492 30.8163C109.183 31.6214 109.547 32.6562 109.512 33.7165L109.516 33.7142ZM118.396 28.3578H115.44V34.2119C115.44 35.6995 115.961 36.443 117.003 36.4425C117.403 36.452 117.802 36.4099 118.192 36.3173L118.27 38.3526C117.597 38.5715 116.892 38.6715 116.186 38.6482C115.727 38.6739 115.268 38.6008 114.84 38.4338C114.412 38.2667 114.025 38.0096 113.705 37.6799C113.02 36.7424 112.702 35.5864 112.811 34.4305V28.3524H111.051V26.3419H112.811V24.137L115.442 23.3437V26.3443H118.398V28.3594L118.396 28.3578ZM131.695 32.2769C131.761 33.9439 131.193 35.574 130.107 36.8399C129.549 37.4498 128.865 37.9303 128.102 38.2477C127.339 38.565 126.516 38.7115 125.691 38.6769C124.9 38.7119 124.11 38.5723 123.379 38.2681C122.648 37.964 121.993 37.5026 121.46 36.9169C120.39 35.6908 119.826 34.1038 119.883 32.4776C119.816 30.7959 120.398 29.1529 121.51 27.8888C122.066 27.2906 122.746 26.8208 123.502 26.5119C124.259 26.203 125.073 26.0624 125.889 26.1C126.685 26.0677 127.479 26.2084 128.215 26.5122C128.952 26.816 129.613 27.2759 130.155 27.8601C131.212 29.0807 131.763 30.6595 131.694 32.273L131.695 32.2769ZM128.918 32.3383C128.947 31.3419 128.698 30.3571 128.201 29.4933C127.973 29.0525 127.627 28.6843 127.2 28.4305C126.774 28.1767 126.285 28.0475 125.79 28.0576C125.287 28.0433 124.79 28.1702 124.356 28.424C123.922 28.6778 123.568 29.0483 123.333 29.4933C122.83 30.3734 122.581 31.3757 122.614 32.3889C122.585 33.3856 122.834 34.3707 123.333 35.2339C123.571 35.6703 123.922 36.0342 124.349 36.2871C124.777 36.5399 125.265 36.6721 125.762 36.6697C126.258 36.6674 126.745 36.5304 127.17 36.2735C127.595 36.0165 127.943 35.6492 128.176 35.2105C128.685 34.3406 128.941 33.3459 128.915 32.3383H128.918ZM140.407 28.7032C140.129 28.6529 139.846 28.6285 139.563 28.63C139.138 28.6103 138.716 28.6977 138.334 28.8841C137.952 29.0706 137.624 29.3502 137.379 29.6971C136.912 30.401 136.678 31.2338 136.711 32.0778V38.4024H134.031V30.1443C134.034 28.8787 134.008 27.6135 133.953 26.3489H136.286L136.385 28.6565H136.458C136.712 27.9042 137.177 27.2407 137.797 26.7448C138.357 26.3272 139.036 26.1005 139.734 26.0985C139.958 26.0974 140.182 26.114 140.403 26.1483V28.7032H140.407ZM152.388 31.8056C152.394 32.2125 152.361 32.6191 152.289 33.0196H144.252C144.234 33.5327 144.329 34.0434 144.531 34.5155C144.733 34.9876 145.036 35.4095 145.419 35.7511C146.167 36.3356 147.099 36.6341 148.047 36.5926C149.157 36.6075 150.26 36.4144 151.3 36.0233L151.72 37.8813C150.438 38.4053 149.061 38.659 147.676 38.6264C146.868 38.6708 146.059 38.5473 145.301 38.2637C144.543 37.98 143.852 37.5424 143.272 36.9783C142.725 36.3835 142.302 35.6859 142.027 34.926C141.752 34.1661 141.632 33.3592 141.672 32.5522C141.613 30.9105 142.141 29.3016 143.161 28.0141C143.663 27.3835 144.306 26.8799 145.038 26.544C145.771 26.2081 146.572 26.0493 147.377 26.0806C148.146 26.0379 148.912 26.1933 149.603 26.5319C150.295 26.8704 150.887 27.3808 151.324 28.0141C152.062 29.1379 152.434 30.4628 152.388 31.8064V31.8056ZM149.833 31.111C149.869 30.3881 149.687 29.671 149.312 29.0524C149.091 28.6898 148.776 28.3942 148.4 28.1972C148.024 28.0002 147.601 27.9092 147.177 27.934C146.76 27.9261 146.347 28.0214 145.975 28.2113C145.603 28.4013 145.284 28.68 145.046 29.0228C144.589 29.6277 144.314 30.3497 144.252 31.1048H149.833V31.111Z" fill="#F5F2FC"/>
<path d="M55.6961 15.8304C55.0532 15.8345 54.4105 15.8023 53.7712 15.734V7.65012C54.5213 7.5336 55.2793 7.47615 56.0383 7.47826C59.1104 7.47826 60.5267 8.99097 60.5267 11.4541C60.5251 14.296 58.8538 15.8304 55.6961 15.8304ZM56.1472 8.51575C55.7919 8.50924 55.4368 8.53791 55.0872 8.60132V14.7455C55.3827 14.7766 55.6798 14.7888 55.9769 14.782C57.9889 14.782 59.1361 13.6364 59.1361 11.4914C59.1345 9.57736 58.0978 8.51497 56.1457 8.51497L56.1472 8.51575ZM64.9357 15.8927C64.5425 15.8988 64.1524 15.8227 63.7904 15.6691C63.4284 15.5156 63.1025 15.288 62.8336 15.0011C62.5648 14.7141 62.3589 14.3741 62.2292 14.0029C62.0995 13.6317 62.0489 13.2374 62.0806 12.8454C62.0456 12.4402 62.0966 12.0322 62.2303 11.6481C62.364 11.2639 62.5774 10.9124 62.8564 10.6165C63.1355 10.3205 63.4739 10.0869 63.8495 9.9309C64.2251 9.77488 64.6295 9.69998 65.0361 9.71114C65.4291 9.70218 65.8196 9.77609 66.1821 9.92805C66.5447 10.08 66.8712 10.3066 67.1404 10.5931C67.4095 10.8796 67.6154 11.2196 67.7445 11.5909C67.8735 11.9622 67.923 12.3565 67.8896 12.7482C67.9234 13.1532 67.8718 13.5608 67.7382 13.9445C67.6045 14.3283 67.3918 14.6797 67.1137 14.9761C66.8356 15.2724 66.4984 15.5071 66.1239 15.6648C65.7494 15.8226 65.3459 15.8999 64.9396 15.8919L64.9357 15.8927ZM64.9855 10.6748C64.0335 10.6748 63.4246 11.5645 63.4246 12.8073C63.4246 14.0276 64.0468 14.9181 64.9723 14.9181C65.8978 14.9181 66.52 13.9662 66.52 12.7824C66.52 11.5769 65.9102 10.6756 64.9855 10.6756V10.6748ZM77.7607 9.83325L75.9073 15.7589H74.7003L73.9319 13.1861C73.7413 12.5569 73.5827 11.9168 73.4559 11.2729H73.4287C73.3195 11.9219 73.1604 12.5616 72.9527 13.1861L72.1361 15.7589H70.9158L69.1729 9.83325H70.5254L71.1966 12.6502C71.3552 13.3217 71.4893 13.9555 71.5987 14.5518H71.6235C71.7208 14.0541 71.8786 13.4311 72.1112 12.6635L72.9527 9.83482H74.026L74.8325 12.6036C75.0262 13.2748 75.1848 13.9327 75.3085 14.5542H75.3435C75.4393 13.8967 75.5736 13.2454 75.7456 12.6036L76.465 9.83482H77.7576L77.7607 9.83325ZM84.5846 15.7589H83.2671V12.3562C83.2671 11.3094 82.865 10.7837 82.0733 10.7837C81.8907 10.79 81.7112 10.8328 81.5454 10.9097C81.3796 10.9865 81.2309 11.0958 81.1081 11.2311C80.9853 11.3664 80.8908 11.5249 80.8303 11.6973C80.7698 11.8698 80.7445 12.0526 80.7558 12.2349V15.7597H79.4383V11.5287C79.4383 11.0045 79.4267 10.4399 79.3901 9.83403H80.5489L80.6088 10.7471H80.6454C80.8391 10.424 81.1149 10.1579 81.4448 9.97611C81.7748 9.79427 82.147 9.70312 82.5236 9.71192C83.768 9.71192 84.5854 10.6639 84.5854 12.2116V15.7597L84.5846 15.7589ZM88.2159 15.7589H86.8938V7.11426H88.2159V15.7589ZM93.0177 15.8927C92.6246 15.8987 92.2345 15.8225 91.8725 15.6689C91.5106 15.5153 91.1847 15.2878 90.9159 15.0008C90.647 14.7139 90.4412 14.3739 90.3114 14.0028C90.1817 13.6316 90.131 13.2374 90.1626 12.8454C90.1276 12.4402 90.1786 12.0322 90.3123 11.6481C90.446 11.2639 90.6594 10.9124 90.9384 10.6165C91.2175 10.3205 91.5559 10.0869 91.9315 9.9309C92.3071 9.77488 92.7114 9.69998 93.118 9.71114C93.511 9.70218 93.9016 9.77609 94.2641 9.92805C94.6267 10.08 94.9532 10.3066 95.2223 10.5931C95.4915 10.8796 95.6974 11.2196 95.8265 11.5909C95.9555 11.9622 96.005 12.3565 95.9716 12.7482C96.0057 13.1532 95.9543 13.5609 95.8207 13.9448C95.6871 14.3287 95.4744 14.6802 95.1963 14.9766C94.9181 15.273 94.5808 15.5076 94.2062 15.6653C93.8316 15.823 93.428 15.9002 93.0216 15.8919L93.0177 15.8927ZM93.0659 10.6748C92.114 10.6748 91.505 11.5645 91.505 12.8073C91.505 14.0276 92.1272 14.9181 93.0527 14.9181C93.9782 14.9181 94.6004 13.9662 94.6004 12.7824C94.6004 11.5769 93.993 10.6756 93.0659 10.6756V10.6748ZM101.159 15.7589L101.064 15.076H101.029C100.83 15.3449 100.568 15.5602 100.265 15.7027C99.9628 15.8453 99.6296 15.9105 99.2957 15.8927C99.0601 15.9055 98.8243 15.8697 98.6032 15.7876C98.382 15.7055 98.18 15.5788 98.0099 15.4153C97.8397 15.2519 97.7049 15.0552 97.614 14.8375C97.5231 14.6197 97.4778 14.3856 97.4812 14.1497C97.4812 12.6868 98.7481 11.9308 100.944 11.9308V11.8219C100.944 11.0442 100.53 10.6553 99.7133 10.6553C99.1653 10.6458 98.6268 10.7987 98.1656 11.0948L97.8988 10.2283C98.5151 9.86981 99.22 9.69219 99.9326 9.71581C101.48 9.71581 102.266 10.534 102.266 12.1673V14.3496C102.256 14.8232 102.285 15.2968 102.351 15.7659H101.161L101.159 15.7589ZM100.979 12.8035C99.5158 12.8035 98.7831 13.1589 98.7831 13.9988C98.77 14.1216 98.7841 14.2458 98.8246 14.3625C98.865 14.4791 98.9306 14.5854 99.0169 14.6738C99.1032 14.7621 99.2079 14.8303 99.3236 14.8735C99.4392 14.9167 99.563 14.9338 99.6861 14.9236C100.017 14.9325 100.337 14.811 100.579 14.5855C100.821 14.36 100.965 14.0484 100.979 13.7181V12.8035ZM108.656 15.7589L108.596 14.8069H108.559C108.384 15.1551 108.11 15.444 107.772 15.6376C107.433 15.8312 107.045 15.921 106.656 15.8958C105.228 15.8958 104.167 14.6405 104.167 12.8719C104.167 11.0185 105.265 9.71427 106.762 9.71427C107.088 9.68194 107.416 9.73995 107.711 9.88195C108.006 10.024 108.256 10.2444 108.433 10.5192H108.46V7.11815H109.777V14.1645C109.777 14.7393 109.792 15.2751 109.827 15.7628L108.656 15.7589ZM108.462 12.2722C108.476 12.0793 108.451 11.8856 108.388 11.7027C108.325 11.5198 108.226 11.3515 108.096 11.2079C107.967 11.0644 107.809 10.9486 107.634 10.8675C107.458 10.7865 107.268 10.7418 107.075 10.7362C106.098 10.7362 105.502 11.6011 105.502 12.8198C105.502 14.0136 106.124 14.8318 107.048 14.8318C107.245 14.8237 107.438 14.7764 107.617 14.6925C107.795 14.6086 107.955 14.4899 108.086 14.3433C108.218 14.1968 108.319 14.0254 108.384 13.8392C108.448 13.653 108.475 13.4558 108.462 13.2592V12.2722V12.2722ZM118.138 15.8919C117.745 15.8977 117.355 15.8213 116.993 15.6676C116.632 15.514 116.306 15.2864 116.037 14.9995C115.769 14.7126 115.563 14.3727 115.433 14.0016C115.304 13.6305 115.253 13.2365 115.285 12.8447C115.25 12.4395 115.301 12.0314 115.434 11.6473C115.568 11.2632 115.781 10.9116 116.06 10.6157C116.339 10.3197 116.678 10.0861 117.053 9.93011C117.429 9.7741 117.833 9.69922 118.24 9.71038C118.633 9.70142 119.023 9.77531 119.386 9.92726C119.749 10.0792 120.075 10.3058 120.344 10.5923C120.613 10.8788 120.819 11.2188 120.948 11.5901C121.077 11.9614 121.127 12.3558 121.093 12.7475C121.127 13.1529 121.076 13.5609 120.942 13.9451C120.808 14.3292 120.594 14.6809 120.316 14.9774C120.037 15.2738 119.699 15.5083 119.324 15.6657C118.949 15.8231 118.545 15.8999 118.138 15.8911V15.8919ZM118.186 10.674C117.236 10.674 116.627 11.5637 116.627 12.8066C116.627 14.0268 117.249 14.9174 118.175 14.9174C119.1 14.9174 119.722 13.9654 119.722 12.7817C119.722 11.5762 119.115 10.6748 118.186 10.6748V10.674ZM128.171 15.7581H126.853V12.3555C126.853 11.3086 126.451 10.7829 125.658 10.7829C125.476 10.7894 125.296 10.8324 125.131 10.9093C124.965 10.9863 124.817 11.0956 124.694 11.2309C124.571 11.3661 124.477 11.5246 124.416 11.6969C124.356 11.8692 124.331 12.0519 124.342 12.2341V15.7589H123.025V11.5279C123.025 11.0037 123.012 10.4391 122.976 9.83325H124.134L124.197 10.7463H124.233C124.426 10.4231 124.702 10.157 125.032 9.97509C125.361 9.79322 125.733 9.70213 126.11 9.71114C127.354 9.71114 128.172 10.6615 128.172 12.2093L128.171 15.7581ZM137.032 10.821H135.582V13.6986C135.582 14.4297 135.836 14.796 136.348 14.796C136.544 14.7975 136.74 14.7774 136.932 14.7361L136.969 15.7348C136.64 15.845 136.294 15.8953 135.947 15.8833C134.91 15.8833 134.289 15.3086 134.289 13.8099V10.8225H133.424V9.83403H134.289V8.7452L135.581 8.35633V9.83403H137.031V10.8225L137.032 10.821ZM144.003 15.7581H142.687V12.3804C142.687 11.3203 142.286 10.7844 141.493 10.7844C141.311 10.7796 141.131 10.8132 140.963 10.8829C140.795 10.9526 140.644 11.057 140.519 11.1891C140.394 11.3212 140.299 11.4781 140.239 11.6496C140.179 11.8211 140.156 12.0033 140.171 12.1844V15.7558H138.855V7.11426H140.171V10.674H140.197C140.381 10.369 140.643 10.1188 140.957 9.94931C141.27 9.77987 141.623 9.69736 141.979 9.71038C143.233 9.71038 144.001 10.6857 144.001 12.2334V15.7581H144.003ZM151.145 13.1138H147.193C147.184 13.3563 147.227 13.5978 147.32 13.8222C147.412 14.0467 147.551 14.2488 147.728 14.415C147.905 14.5812 148.115 14.7076 148.345 14.7858C148.574 14.864 148.818 14.8922 149.06 14.8684C149.604 14.8736 150.145 14.779 150.656 14.5891L150.861 15.5022C150.23 15.7596 149.553 15.884 148.872 15.8678C148.474 15.8984 148.074 15.8418 147.699 15.7021C147.325 15.5624 146.986 15.3428 146.705 15.0586C146.424 14.7744 146.209 14.4325 146.074 14.0566C145.938 13.6807 145.887 13.2799 145.922 12.882C145.922 11.0652 147.046 9.69948 148.722 9.69948C150.236 9.69948 151.187 10.8218 151.187 12.5165C151.195 12.7161 151.18 12.9161 151.142 13.1122L151.145 13.1138ZM149.938 12.175C149.938 11.2604 149.477 10.6157 148.634 10.6157C148.242 10.6461 147.875 10.8237 147.608 11.1129C147.341 11.4021 147.194 11.7814 147.195 12.175H149.938Z" fill="#F5F2FC"/>
</g>
<defs>
<clipPath id="clip0_308_3197">
<rect width="167.307" height="48" fill="white" transform="translate(0.00195312)"/>
</clipPath>
</defs>
</svg>
