<svg xmlns="http://www.w3.org/2000/svg" width="218.004" height="64.593" viewBox="0 0 218.004 64.593">
  <g id="Group_9863" data-name="Group 9863" transform="translate(-726 -11238)">
    <path id="Path_208" data-name="Path 208" d="M300.933,349.278H99.077A8,8,0,0,1,91,341.206V292.76a8,8,0,0,1,8.074-8.074H300.933a8,8,0,0,1,8.074,8.074v48.446A8,8,0,0,1,300.933,349.278Z" transform="translate(634.997 10953.314)" fill="#fff"/>
    <path id="Path_210" data-name="Path 210" d="M131.833,295.2a4.4,4.4,0,0,1-1.129,3.231,5.025,5.025,0,1,1-3.553-8.559,4.288,4.288,0,0,1,1.939.485,3.523,3.523,0,0,1,1.453,1.129l-.809.807a3.008,3.008,0,0,0-2.583-1.129,3.216,3.216,0,0,0-2.585,1.129,3.9,3.9,0,0,0,0,5.492,4.164,4.164,0,0,0,2.585,1.129,3.544,3.544,0,0,0,2.746-1.129,2.683,2.683,0,0,0,.807-1.939H127.15v-1.292h4.682v.646Zm7.428-4.036H134.9v3.068h4.038v1.129H134.9v3.07h4.36v1.29H133.61v-9.689h5.651Zm5.331,8.557H143.3v-8.557h-2.746v-1.131h6.782v1.131h-2.744Zm7.428,0v-9.689h1.29v9.689Zm6.782,0h-1.292v-8.557h-2.746v-1.131h6.621v1.131H158.64v8.557Zm15.341-1.29a5.07,5.07,0,1,1,1.453-3.553A4.754,4.754,0,0,1,174.143,298.435ZM168,297.626a3.815,3.815,0,0,0,2.585,1.131,3.207,3.207,0,0,0,2.583-1.131,3.89,3.89,0,0,0,1.131-2.744,3.328,3.328,0,0,0-1.131-2.746,3.81,3.81,0,0,0-2.583-1.131A3.218,3.218,0,0,0,168,292.137a3.894,3.894,0,0,0-1.129,2.746A3.322,3.322,0,0,0,168,297.626Zm9.367,2.1v-9.689h1.453l4.682,7.589v-7.589H184.8v9.689h-1.292l-5-7.911v7.911Z" transform="translate(670.711 10959.266)" fill="#0f0821"/>
    <path id="Path_211" data-name="Path 211" d="M165.52,305.139a6.794,6.794,0,0,0-6.945,6.943,6.892,6.892,0,0,0,6.945,6.943,6.793,6.793,0,0,0,6.943-6.943A6.7,6.7,0,0,0,165.52,305.139Zm0,10.979a4.211,4.211,0,0,1,0-8.4,3.912,3.912,0,0,1,3.875,4.2A4.008,4.008,0,0,1,165.52,316.118ZM150.5,305.139a6.793,6.793,0,0,0-6.943,6.943,6.892,6.892,0,0,0,6.943,6.943,6.794,6.794,0,0,0,6.945-6.943A6.7,6.7,0,0,0,150.5,305.139Zm0,10.979a4.212,4.212,0,0,1,0-8.4,3.913,3.913,0,0,1,3.877,4.2A4.008,4.008,0,0,1,150.5,316.118Zm-17.924-8.881v2.907h6.943a6.1,6.1,0,0,1-1.614,3.714,7.139,7.139,0,0,1-5.328,2.1,7.517,7.517,0,0,1-7.589-7.75,7.617,7.617,0,0,1,7.589-7.752,8.013,8.013,0,0,1,5.328,2.1l2.1-2.1a10.346,10.346,0,0,0-7.267-2.907,10.659,10.659,0,1,0,0,21.316,9.288,9.288,0,0,0,7.428-3.068,9.719,9.719,0,0,0,2.585-6.782,6.082,6.082,0,0,0-.161-1.778ZM205.89,309.5a6.27,6.27,0,0,0-5.811-4.358c-3.553,0-6.46,2.744-6.46,6.943a6.757,6.757,0,0,0,6.782,6.943,6.624,6.624,0,0,0,5.653-3.068l-2.261-1.614a3.939,3.939,0,0,1-3.392,1.939,3.505,3.505,0,0,1-3.392-2.1l9.206-3.875-.324-.809Zm-9.365,2.263a3.924,3.924,0,0,1,3.553-4.038,2.855,2.855,0,0,1,2.583,1.453l-6.136,2.585Zm-7.591,6.621H192V298.194h-3.07Zm-4.843-11.788a5.31,5.31,0,0,0-3.714-1.617,6.94,6.94,0,0,0-6.621,6.945,6.686,6.686,0,0,0,6.621,6.782,4.639,4.639,0,0,0,3.553-1.614h.161v.968c0,2.585-1.453,4.038-3.714,4.038a3.589,3.589,0,0,1-3.392-2.424L174.4,320.8a6.66,6.66,0,0,0,6.136,4.036c3.553,0,6.46-2.1,6.46-7.1V305.461h-2.907v1.131Zm-3.553,9.526a4.212,4.212,0,0,1,0-8.4c2.1,0,3.714,1.776,3.714,4.2S182.637,316.118,180.538,316.118Zm39.4-17.924h-7.265v20.187h3.068V310.79h4.2a6.306,6.306,0,1,0,0-12.6Zm.163,9.689h-4.36V300.94h4.36a3.548,3.548,0,0,1,3.553,3.39,3.7,3.7,0,0,1-3.553,3.553Zm18.57-2.907c-2.261,0-4.521.97-5.328,3.07l2.744,1.129a2.857,2.857,0,0,1,2.746-1.453,3.037,3.037,0,0,1,3.231,2.585v.161a6.4,6.4,0,0,0-3.07-.807c-2.907,0-5.814,1.614-5.814,4.521a4.731,4.731,0,0,0,5.006,4.521,4.547,4.547,0,0,0,3.877-1.939h.161v1.617h2.907v-7.752a6.112,6.112,0,0,0-6.46-5.653Zm-.324,11.142c-.968,0-2.422-.483-2.422-1.775,0-1.614,1.778-2.1,3.231-2.1a6.255,6.255,0,0,1,2.744.646A3.758,3.758,0,0,1,238.348,316.118ZM255.3,305.461l-3.39,8.72h-.161l-3.553-8.72h-3.231l5.331,12.273-3.068,6.782H250.3l8.235-19.055Zm-27.128,12.92h3.068V298.194h-3.068Z" transform="translate(670.452 10968.064)" fill="#0f0821"/>
    <path id="Path_212" data-name="Path 212" d="M99.171,290.327a3.165,3.165,0,0,0-.646,2.261v35.689a3.2,3.2,0,0,0,.807,2.261l.163.161,20.024-20.024v-.324Z" transform="translate(642.624 10959.784)" fill="#0f0821"/>
    <path id="Path_213" data-name="Path 213" d="M114.85,310.3l-6.621-6.621v-.485l6.621-6.621.161.163,7.913,4.521c2.261,1.292,2.261,3.39,0,4.682Z" transform="translate(655.753 10966.943)" fill="#0f0821"/>
    <path id="Path_214" data-name="Path 214" d="M125.795,306.512l-6.782-6.782L98.826,319.915c.807.807,1.939.807,3.392.161l23.577-13.564" transform="translate(643.969 10971.567)" fill="#0f0821"/>
    <path id="Path_215" data-name="Path 215" d="M125.795,304.013l-23.577-13.4c-1.453-.807-2.585-.646-3.392.161L119.013,310.8l6.782-6.784Z" transform="translate(643.969 10958.5)" fill="#0f0821"/>
  </g>
</svg>
