<svg width="163" height="48" viewBox="0 0 163 48" fill="none" xmlns="http://www.w3.org/2000/svg">
<rect width="162.002" height="48" rx="6" fill="#371B79"/>
<path d="M51.376 17.148V10.26H52.54C54.904 10.26 55.864 11.652 55.864 13.632V13.728C55.864 15.828 54.76 17.148 52.552 17.148H51.376ZM50.332 18H52.576C55.576 18 56.944 16.116 56.944 13.74V13.632C56.944 11.244 55.552 9.42 52.6 9.42H50.332V18ZM61.2314 17.28C59.9594 17.28 59.1794 16.344 59.1794 14.916V14.82C59.1794 13.38 59.9714 12.444 61.2314 12.444C62.4794 12.444 63.2834 13.38 63.2834 14.832V14.916C63.2834 16.332 62.4914 17.28 61.2314 17.28ZM61.2194 18.108C63.0074 18.108 64.3154 16.8 64.3154 14.904V14.808C64.3154 12.924 63.0074 11.616 61.2314 11.616C59.4554 11.616 58.1474 12.936 58.1474 14.82V14.916C58.1474 16.752 59.4314 18.108 61.2194 18.108ZM67.0004 18H68.0924L69.5564 13.296L70.8644 18H71.9684L73.9244 11.724H72.9044L71.4284 16.776L70.0004 11.724H69.1364L67.6124 16.776L66.1484 11.724H65.0684L67.0004 18ZM75.2678 18H76.2638V14.196C76.2638 13.068 77.0918 12.48 78.0158 12.48C79.0238 12.48 79.4918 12.972 79.4918 14.076V18H80.4878V14.148C80.4878 12.324 79.5758 11.616 78.2798 11.616C77.2478 11.616 76.5518 12.132 76.2638 12.72V11.724H75.2678V18ZM82.4636 18H83.4716V8.724H82.4636V18ZM88.126 17.28C86.854 17.28 86.074 16.344 86.074 14.916V14.82C86.074 13.38 86.866 12.444 88.126 12.444C89.374 12.444 90.178 13.38 90.178 14.832V14.916C90.178 16.332 89.386 17.28 88.126 17.28ZM88.114 18.108C89.902 18.108 91.21 16.8 91.21 14.904V14.808C91.21 12.924 89.902 11.616 88.126 11.616C86.35 11.616 85.042 12.936 85.042 14.82V14.916C85.042 16.752 86.326 18.108 88.114 18.108ZM94.3241 18.108C95.2481 18.108 95.8121 17.796 96.2801 17.208V18H97.2761V13.86C97.2761 12.108 96.1841 11.616 94.9841 11.616C93.7721 11.616 92.6321 12.144 92.5001 13.572H93.4961C93.5921 12.804 94.0721 12.444 94.9361 12.444C95.8961 12.444 96.2801 12.864 96.2801 13.86V14.316H95.3801C93.7721 14.316 92.2361 14.808 92.2361 16.26C92.2361 17.544 93.1601 18.108 94.3241 18.108ZM94.4201 17.316C93.5441 17.316 93.2321 16.908 93.2321 16.26C93.2321 15.336 94.1561 15.024 95.4161 15.024H96.2801V15.804C96.2801 16.776 95.4761 17.316 94.4201 17.316ZM101.597 18.108C102.509 18.108 103.385 17.532 103.745 16.92V18H104.741V8.724H103.745V12.732C103.385 12.12 102.737 11.616 101.693 11.616C99.9646 11.616 98.7646 12.972 98.7646 14.892V14.988C98.7646 16.944 99.9526 18.108 101.597 18.108ZM101.705 17.28C100.649 17.28 99.7966 16.524 99.7966 14.94V14.844C99.7966 13.32 100.541 12.444 101.789 12.444C103.013 12.444 103.781 13.2 103.781 14.808V14.904C103.781 16.512 102.869 17.28 101.705 17.28Z" fill="white"/>
<path d="M49.3135 37H51.4415L52.1275 34.774H55.7535L56.4395 37H58.8055L55.5575 26.99H52.6035L49.3135 37ZM53.9475 28.838L55.2635 33.164H52.6175L53.9475 28.838ZM60.1737 37H62.1897V29.874L66.3617 37H68.6297V26.99H66.6137V33.584L62.8057 26.99H60.1737V37ZM73.0511 35.236V28.754H73.9471C76.0611 28.754 76.9431 29.86 76.9431 31.918V32.03C76.9431 34.102 75.9911 35.236 73.9751 35.236H73.0511ZM70.7831 37H74.0451C77.5591 37 79.3091 34.998 79.3091 32.002V31.89C79.3091 28.894 77.5731 26.99 74.0591 26.99H70.7831V37ZM80.9413 37H83.1953V33.136H84.1753L86.5693 37H88.9773L86.3313 32.744C87.5073 32.394 88.3893 31.596 88.3893 30.084V30.028C88.3893 27.956 86.8913 26.99 84.5253 26.99H80.9413V37ZM83.1953 31.596V28.726H84.4693C85.5613 28.726 86.1773 29.076 86.1773 30.098V30.154C86.1773 31.12 85.6033 31.596 84.4693 31.596H83.1953ZM94.8728 35.348C93.2348 35.348 92.0588 34.088 92.0588 32.044V31.932C92.0588 29.916 93.1088 28.642 94.8448 28.642C96.5948 28.642 97.6308 29.972 97.6308 31.918V32.03C97.6308 34.046 96.5668 35.348 94.8728 35.348ZM94.8308 37.154C97.9528 37.154 99.9968 34.984 99.9968 32.002V31.89C99.9968 28.88 97.8548 26.85 94.8448 26.85C91.8768 26.85 89.6928 28.964 89.6928 31.946V32.058C89.6928 34.984 91.6948 37.154 94.8308 37.154ZM101.697 37H103.979V26.99H101.697V37ZM108.461 35.236V28.754H109.357C111.471 28.754 112.353 29.86 112.353 31.918V32.03C112.353 34.102 111.401 35.236 109.385 35.236H108.461ZM106.193 37H109.455C112.969 37 114.719 34.998 114.719 32.002V31.89C114.719 28.894 112.983 26.99 109.469 26.99H106.193V37ZM118.671 37H120.799L121.485 34.774H125.111L125.797 37H128.163L124.915 26.99H121.961L118.671 37ZM123.305 28.838L124.621 33.164H121.975L123.305 28.838ZM129.531 37H131.785V33.36H133.059C135.341 33.36 136.811 32.352 136.811 30.238V30.182C136.811 28.068 135.425 26.99 132.989 26.99H129.531V37ZM131.785 31.778V28.712H132.933C134.011 28.712 134.627 29.132 134.627 30.196V30.252C134.627 31.246 134.039 31.778 132.933 31.778H131.785ZM138.295 37H140.549V33.36H141.823C144.105 33.36 145.575 32.352 145.575 30.238V30.182C145.575 28.068 144.189 26.99 141.753 26.99H138.295V37ZM140.549 31.778V28.712H141.697C142.775 28.712 143.391 29.132 143.391 30.196V30.252C143.391 31.246 142.803 31.778 141.697 31.778H140.549Z" fill="white"/>
<path d="M14.4406 31.1784C14.4406 31.9096 15.0375 32.5065 15.7719 32.5065H17.2937V36.269C17.2937 37.2221 18.0594 38.0003 19 38.0003C19.9437 38.0003 20.7062 37.2253 20.7062 36.269V32.5034H23.3625V36.2659C23.3625 37.219 24.1281 37.9971 25.0687 37.9971C26.0125 37.9971 26.775 37.2221 26.775 36.2659V32.5034H28.2969C29.0312 32.5034 29.6281 31.9065 29.6281 31.1753V18.8253H14.4406V31.1784ZM25.6 12.4253L27.0031 10.394C27.0844 10.2753 27.0656 10.1159 26.9562 10.0378C26.8469 9.96277 26.6906 10.0003 26.6094 10.119L25.1531 12.2315C24.1937 11.8534 23.125 11.644 22.0031 11.644C20.8812 11.644 19.8125 11.8534 18.8531 12.2315L17.3969 10.1221C17.3156 10.0034 17.1594 9.96277 17.05 10.0409C16.9406 10.1159 16.9219 10.2721 17.0031 10.3971L18.4062 12.4284C16.175 13.4659 14.6125 15.4315 14.4125 17.7284H29.6C29.3937 15.4284 27.8281 13.4628 25.6 12.4253ZM18.7969 15.6284C18.6306 15.6284 18.4681 15.5791 18.3298 15.4867C18.1916 15.3944 18.0839 15.2631 18.0202 15.1095C17.9566 14.9559 17.94 14.7868 17.9724 14.6238C18.0048 14.4607 18.0849 14.3109 18.2025 14.1934C18.32 14.0758 18.4698 13.9957 18.6329 13.9633C18.7959 13.9309 18.965 13.9475 19.1186 14.0111C19.2722 14.0748 19.4034 14.1825 19.4958 14.3207C19.5882 14.459 19.6375 14.6215 19.6375 14.7878C19.6369 15.0105 19.5482 15.224 19.3906 15.3815C19.2331 15.5391 19.0196 15.6278 18.7969 15.6284ZM25.3094 15.6284C25.1431 15.6284 24.9806 15.5791 24.8423 15.4867C24.7041 15.3944 24.5964 15.2631 24.5327 15.1095C24.4691 14.9559 24.4525 14.7868 24.4849 14.6238C24.5173 14.4607 24.5974 14.3109 24.715 14.1934C24.8325 14.0758 24.9823 13.9957 25.1454 13.9633C25.3084 13.9309 25.4775 13.9475 25.6311 14.0111C25.7847 14.0748 25.9159 14.1825 26.0083 14.3207C26.1007 14.459 26.15 14.6215 26.15 14.7878C26.1494 15.0105 26.0607 15.224 25.9031 15.3815C25.7456 15.5391 25.5321 15.6278 25.3094 15.6284ZM32.2906 18.7753C31.3469 18.7753 30.5844 19.5503 30.5844 20.5065V27.269C30.5844 28.2221 31.35 29.0003 32.2906 29.0003C33.2344 29.0003 33.9969 28.2253 33.9969 27.269V20.5034C34 19.5471 33.2375 18.7753 32.2906 18.7753ZM11.7094 18.7753C10.7656 18.7753 10.0031 19.5503 10.0031 20.5065V27.269C10.0031 28.2221 10.7687 29.0003 11.7094 29.0003C12.6531 29.0003 13.4156 28.2253 13.4156 27.269V20.5034C13.4156 19.5471 12.65 18.7753 11.7094 18.7753Z" fill="#F5F2FC"/>
</svg>
